# xmcd
#
# Track frame offsets:
#	150
#	14097
#	27522
#	44177
#	55052
#	68885
#	79977
#	91585
#	104235
#	120385
#
# Disc length: 1769 seconds
#
# Revision: 1
# Processed by: cddbd v1.4b41PL3 Copyright (c) Steve Scherf et al.
# Submitted via: audiograbber 1.80
#
DISCID=8b06e70a
DTITLE=Mel McDaniel - Now You're Talkin'
DYEAR=1900
DGENRE=
TTITLE0=Now You're Talkin'
TTITLE1=Ride This Train
TTITLE2=She's A Lover Of Lost Causes
TTITLE3=Real Good Feel Good Song
TTITLE4=Under My Skin
TTITLE5=Hey Y'All
TTITLE6=Henrietta
TTITLE7=Sunday Mornin' Preachers
TTITLE8=Jump Into Love
TTITLE9=Bye Bye Johnny
EXTD=
EXTT0=
EXTT1=
EXTT2=
EXTT3=
EXTT4=
EXTT5=
EXTT6=
EXTT7=
EXTT8=
EXTT9=
PLAYORDER=
